<svg width="37" height="68" viewBox="0 0 37 68" fill="none" xmlns="http://www.w3.org/2000/svg">
<g id="Frame" clip-path="url(#clip0_17_855)">
<g id="Group">
<g id="Isolation Mode">
<g id="Group_2">
<path id="Vector" d="M0.796875 35.8227L18.5028 28.9527L36.2087 35.8227L18.5028 42.6981L0.796875 35.8227Z" fill="url(#paint0_linear_17_855)"/>
<g id="Vector_2" style="mix-blend-mode:multiply">
<path d="M2.80981 35.0412C7.4454 36.8393 18.5028 41.135 18.5028 41.135L34.1958 35.0412C31.0335 33.8114 18.5028 28.9473 18.5028 28.9473L2.80981 35.0412Z" fill="#D1D3D4"/>
</g>
<g id="Group_3">
<path id="Vector_3" d="M36.2087 35.8336L18.5028 67.5L0.791504 35.8336L18.5028 42.6981L36.2087 35.8336Z" fill="url(#paint1_linear_17_855)"/>
<path id="Vector_4" d="M36.5 32.691L18.5027 39.6758L0.5 32.691L18.5027 0.5L36.5 32.691Z" fill="url(#paint2_linear_17_855)"/>
</g>
<g id="Vector_5" style="mix-blend-mode:multiply">
<path d="M18.5027 42.6981L36.2086 35.8336L18.5027 67.5V42.6981Z" fill="#DCCFEF"/>
</g>
<g id="Vector_6" style="mix-blend-mode:multiply">
<path d="M36.5 32.691L18.5027 39.6758V0.5L36.5 32.691Z" fill="#DCCFEF"/>
</g>
</g>
</g>
</g>
</g>
<defs>
<linearGradient id="paint0_linear_17_855" x1="34.7999" y1="34.788" x2="3.00367" y2="34.6299" gradientUnits="userSpaceOnUse">
<stop stop-color="#FF1A40"/>
<stop offset="0.520833" stop-color="#FF49AB"/>
<stop offset="1" stop-color="#452FFF"/>
</linearGradient>
<linearGradient id="paint1_linear_17_855" x1="34.7997" y1="49.2769" x2="2.998" y2="49.2082" gradientUnits="userSpaceOnUse">
<stop stop-color="#FF4060"/>
<stop offset="0.520833" stop-color="#FF81C5"/>
<stop offset="1" stop-color="#6D5EEA"/>
</linearGradient>
<linearGradient id="paint2_linear_17_855" x1="35.0678" y1="17.1312" x2="2.74275" y2="17.0739" gradientUnits="userSpaceOnUse">
<stop stop-color="#FF4060"/>
<stop offset="0.520833" stop-color="#FF81C5"/>
<stop offset="1" stop-color="#6D5EEA"/>
</linearGradient>
<clipPath id="clip0_17_855">
<rect width="36" height="67" fill="white" transform="translate(0.5 0.5)"/>
</clipPath>
</defs>
</svg>
